<?xml version="1.0" standalone="no"?>
<!DOCTYPE svg PUBLIC "-//W3C//DTD SVG 20010904//EN"
 "http://www.w3.org/TR/2001/REC-SVG-20010904/DTD/svg10.dtd">
<svg version="1.0" xmlns="http://www.w3.org/2000/svg"
 width="2133.000000pt" height="2133.000000pt" viewBox="0 0 2133.000000 2133.000000"
 preserveAspectRatio="xMidYMid meet">
<metadata>
Created by potrace 1.15, written by Peter Selinger 2001-2017
</metadata>
<g transform="translate(0.000000,2133.000000) scale(0.100000,-0.100000)"
fill="#000000" stroke="none">
<path d="M4660 17000 l0 -320 -330 0 -330 0 0 -335 0 -335 -335 0 -335 0 0
-1000 0 -1000 -320 0 -320 0 0 335 0 335 -680 0 -681 0 3 -335 3 -335 -332 0
-333 0 0 -1330 0 -1330 -330 0 -330 0 0 -1680 0 -1680 330 0 330 0 0 -330 0
-330 333 0 332 0 0 -332 0 -333 333 -3 332 -2 0 -330 0 -330 665 0 665 0 0
-995 0 -995 1345 0 1345 0 0 325 0 325 333 2 332 3 0 333 0 332 323 0 322 0 0
-335 0 -335 333 0 332 0 -3 -325 -3 -325 1016 0 1015 0 -2 660 -3 660 1658 0
1658 0 -1 -322 c0 -178 -1 -329 0 -335 0 -10 73 -13 330 -13 l330 0 0 -325 0
-325 1010 0 1010 0 0 660 0 660 325 0 326 0 -1 -322 c0 -178 -1 -329 0 -335 0
-10 73 -13 330 -13 l330 0 0 -325 0 -325 1015 0 1015 0 0 989 c0 544 -3 996
-6 1005 -5 14 -44 16 -335 16 l-329 0 0 330 0 330 -335 0 -335 0 0 335 0 335
-332 0 -333 0 0 655 0 655 668 0 667 0 0 333 0 332 662 0 663 0 3 333 2 332
335 0 335 0 0 335 0 335 325 0 325 0 0 675 0 675 -325 0 -325 0 0 335 0 335
-680 0 -680 0 0 -335 0 -335 -335 0 -336 0 3 -330 3 -330 -655 0 -655 0 0
2327 0 2328 -332 3 -333 2 0 335 0 335 -335 0 -335 0 0 320 0 320 -5675 0
-5675 0 0 -320z m11338 -667 l2 -333 333 -2 332 -3 0 -4660 0 -4660 -332 -3
-333 -2 0 -330 0 -330 -3665 0 -3665 0 0 330 0 330 335 0 335 0 0 335 0 335
335 0 335 0 0 330 0 330 330 0 330 0 0 1000 0 1000 333 2 332 3 0 330 0 330
-332 3 -333 2 0 335 0 335 -330 0 -330 0 0 1330 0 1330 -335 0 -335 0 0 665 0
665 -335 0 -335 0 0 -330 0 -330 -332 -2 -333 -3 -3 -332 -2 -333 -330 0 -330
0 0 -330 0 -330 -335 0 -335 0 0 -335 0 -335 -1330 0 -1330 0 0 1665 0 1665
333 2 332 3 3 333 2 332 5658 -2 5657 -3 3 -332z m-13328 -2673 l0 -330 330
-2 331 -3 2 -330 2 -330 332 -3 333 -2 2 -333 3 -332 1338 -3 1337 -2 0 335 0
335 335 0 335 0 0 335 0 335 330 0 330 0 0 330 0 330 660 0 660 0 0 -1330 0
-1330 335 0 335 0 0 -1660 0 -1660 -332 -2 -333 -3 -5 -330 -5 -330 -330 0
-330 0 0 -333 0 -332 -3322 0 -3323 0 -2 333 -3 332 -333 0 -332 0 0 333 0
332 -335 0 -336 0 3 1660 3 1660 333 0 332 0 0 1330 0 1330 660 0 660 0 0
-330z m17990 -2325 l0 -655 -335 0 -335 0 0 -335 0 -335 -665 0 -665 0 0 -332
0 -333 -660 0 -660 0 0 658 0 657 1000 0 1000 0 0 668 0 667 660 -3 660 -2 0
-655z m-2670 -5002 l0 -333 335 0 335 0 0 -660 0 -660 -660 0 -660 0 0 335 0
335 -332 0 -333 0 0 325 0 325 333 0 332 0 0 328 c0 181 2 331 4 333 2 2 149
4 325 4 l321 0 0 -332z m-13320 -668 l0 -335 333 0 332 0 0 -325 0 -325 -657
0 -658 0 0 660 0 660 325 0 325 0 0 -335z m4660 -660 l0 -325 -660 0 -660 0 0
325 0 325 660 0 660 0 0 -325z m6000 0 l0 -325 -660 0 -660 0 0 325 0 325 660
0 660 0 0 -325z"/>
<path d="M10670 15000 l0 -330 335 0 335 0 0 330 0 330 -335 0 -335 0 0 -330z"/>
<path d="M14005 14658 c-3 -7 -4 -157 -3 -333 l3 -320 333 -3 332 -2 -2 332
-3 333 -328 3 c-258 2 -329 0 -332 -10z"/>
<path d="M6012 13668 l3 -333 305 -3 c168 -1 315 0 328 3 l22 5 0 330 0 330
-330 0 -330 0 2 -332z"/>
<path d="M11340 12335 l0 -335 330 0 330 0 0 335 0 335 -330 0 -330 0 0 -335z"/>
<path d="M13344 11331 c-2 -2 -4 -152 -4 -333 l0 -328 330 0 330 0 -2 330 -3
331 -323 2 c-178 1 -326 0 -328 -2z"/>
<path d="M14670 9670 l0 -330 330 2 331 3 0 325 0 325 -331 3 -330 2 0 -330z"/>
<path d="M12007 8663 c-12 -11 -8 -653 3 -653 6 0 155 0 333 0 l322 -1 3 331
2 330 -328 0 c-181 0 -332 -3 -335 -7z"/>
<path d="M14000 7670 l0 -330 335 0 335 0 0 330 0 330 -335 0 -335 0 0 -330z"/>
<path d="M2685 10690 c-4 -6 -130 -10 -346 -10 l-339 0 2 -672 3 -673 673 -3
672 -2 0 334 c0 213 4 337 10 341 6 4 10 127 10 336 0 213 -4 329 -10 329 -6
0 -10 -118 -10 -335 l0 -335 -335 0 -335 0 0 340 0 340 338 0 c221 0 332 4
322 10 -21 13 -647 13 -655 0z"/>
<path d="M7345 10690 c-4 -6 -128 -10 -341 -10 l-334 0 0 -675 0 -675 669 0
c435 0 670 3 673 10 2 5 2 156 0 335 l-3 325 -334 0 -335 0 0 340 0 340 338 0
c221 0 332 4 322 10 -21 13 -647 13 -655 0z"/>
<path d="M4000 9670 l0 -340 340 0 340 0 0 340 0 340 -340 0 -340 0 0 -340z"/>
<path d="M2670 8005 l0 -675 2340 0 2340 0 0 675 0 675 -340 0 -340 0 0 -335
0 -335 -660 0 -660 0 0 335 0 335 -340 0 -340 0 0 -335 0 -335 -660 0 -660 0
0 335 0 335 -340 0 -340 0 0 -675z"/>
</g>
</svg>
