<svg id="Capa_1" enable-background="new 0 0 497 497" height="512" viewBox="0 0 497 497" width="512" xmlns="http://www.w3.org/2000/svg"><path d="m445.82 214.568-8.351-11.149c-10.938-14.603-14.661-33.379-10.124-51.051l3.463-13.485c.712-2.774-.494-5.685-2.96-7.142l-11.966-7.07c-15.722-9.289-26.377-25.213-28.964-43.29l-1.97-13.765c-.405-2.83-2.629-5.054-5.459-5.459l-13.766-1.97c-18.077-2.587-34.001-13.242-43.289-28.964l-7.07-11.966c-1.457-2.466-4.368-3.672-7.142-2.96l-13.486 3.463c-17.672 4.538-36.447.814-51.05-10.124l-11.15-8.352c-2.287-1.713-5.43-1.713-7.717 0l-11.149 8.351c-14.603 10.938-33.379 14.661-51.051 10.124l-13.485-3.463c-2.774-.712-5.685.494-7.142 2.96l-7.069 11.966c-9.289 15.722-25.213 26.377-43.29 28.964l-13.765 1.97c-2.83.405-5.054 2.629-5.459 5.459l-1.97 13.766c-2.587 18.076-13.242 34.001-28.964 43.289l-11.966 7.07c-2.466 1.457-3.672 4.368-2.96 7.142l3.463 13.486c4.538 17.672.814 36.447-10.124 51.05l-8.352 11.15c-1.713 2.287-1.713 5.43 0 7.717l8.351 11.149c10.938 14.603 14.661 33.379 10.124 51.051l-3.463 13.485c-.712 2.774.494 5.685 2.96 7.142l11.966 7.07c15.722 9.289 26.376 25.213 28.964 43.29l1.97 13.765c.405 2.83 2.629 5.054 5.459 5.459l13.766 1.97c18.077 2.587 34.001 13.242 43.289 28.964l7.07 11.966c1.457 2.466 4.368 3.672 7.142 2.96l13.486-3.463c17.672-4.538 36.447-.814 51.05 10.124l11.15 8.352c2.287 1.713 5.43 1.713 7.717 0l11.149-8.351c14.603-10.938 33.379-14.661 51.051-10.124l13.485 3.463c2.774.712 5.685-.494 7.142-2.96l7.07-11.966c9.289-15.722 25.213-26.377 43.29-28.964l13.765-1.97c2.83-.405 5.054-2.629 5.459-5.459l1.97-13.766c2.587-18.077 13.242-34.001 28.964-43.289l11.966-7.07c2.466-1.457 3.672-4.368 2.96-7.142l-3.463-13.486c-4.538-17.672-.814-36.447 10.124-51.05l8.352-11.15c1.712-2.288 1.712-5.43-.001-7.717z" fill="#ff71a7"/><circle cx="228.679" cy="218.426" fill="#f8e86a" r="160.421"/><path d="m268.679 358.847c-88.598 0-160.421-71.823-160.421-160.421 0-54.828 27.513-103.224 69.479-132.157-63.625 21.292-109.479 81.368-109.479 152.157 0 88.598 71.823 160.421 160.421 160.421 33.769 0 65.095-10.443 90.942-28.263-16.006 5.356-33.134 8.263-50.942 8.263z" fill="#fab659"/><ellipse cx="148.905" cy="169.358" fill="#ffa0ab" rx="29.435" ry="23.44"/><ellipse cx="308.452" cy="169.358" fill="#ffa0ab" rx="29.435" ry="23.44"/><g fill="#423e4f"><path d="m166.06 153.174c-7.989 0-15.585-3.459-20.841-9.492-2.721-3.123-2.396-7.86.727-10.582 3.123-2.721 7.86-2.396 10.582.727 2.407 2.762 5.881 4.346 9.533 4.346s7.126-1.584 9.533-4.346c2.721-3.123 7.458-3.448 10.582-.727 3.123 2.721 3.448 7.458.727 10.582-5.258 6.032-12.854 9.492-20.843 9.492z"/><path d="m291.297 153.174c-7.988 0-15.584-3.459-20.841-9.491-2.721-3.123-2.396-7.86.727-10.582 3.123-2.721 7.86-2.396 10.582.727 2.407 2.762 5.882 4.347 9.533 4.347s7.126-1.584 9.533-4.347c2.722-3.123 7.459-3.447 10.582-.727 3.123 2.722 3.448 7.459.727 10.582-5.258 6.031-12.855 9.491-20.843 9.491z"/><ellipse cx="228.679" cy="159.486" rx="11.742" ry="12.523"/></g><path d="m448.952 370.141c-4.496-2.166-6.919-7.166-5.663-11.995.984-3.78 1.507-7.746 1.507-11.835 0-25.885-20.984-46.869-46.869-46.869-.868 0-1.73.028-2.587.074-10.62-47.162-52.757-82.392-103.127-82.392-53.595 0-97.867 39.885-104.77 91.592-.879 6.588-6.585 11.379-13.227 11.144-.873-.031-1.75-.047-2.631-.047-40.519 0-73.367 32.847-73.367 73.367v.117c.009 5.551-4.436 10.005-9.986 9.966-.109-.001-.219-.001-.328-.001-26.151 0-47.3 21.418-46.862 47.67.43 25.699 21.933 46.068 47.635 46.068h330.353c36.943 0 67.62-29.6 67.717-66.543.07-26.561-15.382-49.516-37.795-60.316z" fill="#e8e8e8"/><ellipse cx="204.755" cy="398.714" fill="#ffa0ab" rx="31.932" ry="25.429"/><ellipse cx="377.84" cy="398.714" fill="#ffa0ab" rx="31.932" ry="25.429"/><path d="m238.564 378.543c-4.142 0-7.5-3.358-7.5-7.5 0-4.245-3.454-7.699-7.699-7.699s-7.699 3.454-7.699 7.699c0 4.142-3.358 7.5-7.5 7.5s-7.5-3.358-7.5-7.5c0-12.517 10.183-22.699 22.699-22.699 12.517 0 22.699 10.183 22.699 22.699 0 4.142-3.358 7.5-7.5 7.5z" fill="#423e4f"/><path d="m374.428 378.543c-4.142 0-7.5-3.358-7.5-7.5 0-4.245-3.454-7.699-7.699-7.699s-7.699 3.454-7.699 7.699c0 4.142-3.358 7.5-7.5 7.5s-7.5-3.358-7.5-7.5c0-12.517 10.183-22.699 22.699-22.699s22.699 10.183 22.699 22.699c0 4.142-3.357 7.5-7.5 7.5z" fill="#423e4f"/><path d="m291.297 403.652c-8.347 0-16.284-3.615-21.777-9.917-2.721-3.123-2.396-7.86.727-10.582 3.123-2.721 7.86-2.396 10.582.727 2.643 3.033 6.459 4.773 10.468 4.773s7.825-1.74 10.468-4.773c2.722-3.123 7.459-3.447 10.582-.727 3.123 2.722 3.448 7.459.727 10.582-5.493 6.303-13.43 9.917-21.777 9.917z" fill="#423e4f"/></svg>